<svg width="1440" height="608" viewBox="0 0 1440 608" fill="none" xmlns="http://www.w3.org/2000/svg">
<path d="M-56 105.374C195.334 175.896 330.812 268.906 408.947 344.995C474.08 408.431 472.925 434.38 542.087 481.708C692.175 584.408 979.685 655.229 1119.03 566.973C1187.67 523.497 1162.28 468.402 1195.11 364.104C1224.65 270.28 1301.02 141.24 1514.22 1" stroke="#605D67" stroke-miterlimit="10"/>
<path d="M-55.4973 128.127C188.967 188.735 323.09 276.235 401.184 347.444C466.893 407.378 472.236 431.344 545.698 477.859C699.806 575.436 969.815 643.37 1109.35 561.021C1181.23 518.608 1164.88 464.455 1203.35 360.463C1237.22 268.909 1315.14 142.076 1524.68 3.09311" stroke="#605D67" stroke-miterlimit="10"/>
<path d="M-54.9945 150.877C182.595 201.574 315.468 283.586 393.435 349.893C459.855 406.382 471.429 428.312 549.323 474.01C707.111 566.579 960.376 631.669 1099.7 555.073C1174.97 513.69 1167.38 460.562 1211.61 356.825C1249.67 267.563 1329.29 142.92 1535.17 5.20193" stroke="#605D67" stroke-miterlimit="10"/>
<path d="M-54.4918 173.629C176.223 214.416 307.977 290.959 385.685 352.362C452.903 405.445 470.49 425.301 552.966 470.158C714.121 557.847 951.344 620.145 1090.06 549.121C1168.87 508.773 1169.76 456.713 1219.88 353.184C1261.96 266.236 1343.45 143.765 1545.63 7.30133" stroke="#605D67" stroke-miterlimit="10"/>
<path d="M-53.9874 196.379C169.876 227.249 300.641 298.332 377.938 354.795C446.071 404.56 469.477 422.319 556.566 466.309C720.806 549.244 942.64 608.809 1080.37 543.17C1162.9 503.846 1171.97 452.89 1228.11 349.544C1274.08 264.915 1357.58 144.607 1556.08 9.41647" stroke="#605D67" stroke-miterlimit="10"/>
<path d="M-53.4846 219.129C163.486 240.088 293.472 305.708 370.188 357.244C439.382 403.727 468.298 419.381 560.191 462.457C727.268 540.784 934.292 597.666 1070.71 537.222C1157.09 498.947 1174.03 449.085 1236.36 345.903C1286.06 263.591 1371.72 145.452 1566.54 11.5001" stroke="#605D67" stroke-miterlimit="10"/>
<path d="M-52.9819 241.879C157.114 252.911 286.502 313.053 362.439 359.694C432.847 402.939 467.043 416.494 563.812 458.608C733.522 532.462 926.244 586.725 1061.05 531.27C1151.43 494.093 1176 445.28 1244.61 342.265C1297.9 262.255 1385.88 146.296 1577.01 13.6026" stroke="#605D67" stroke-miterlimit="10"/>
<path d="M-52.4614 264.632C150.76 265.763 279.767 320.363 354.707 362.143C426.511 402.177 465.732 413.67 567.45 454.759C739.607 524.282 918.485 575.982 1051.41 525.319C1145.92 489.298 1177.81 441.469 1252.88 338.624C1309.59 260.902 1400.01 147.151 1587.47 15.7021" stroke="#605D67" stroke-miterlimit="10"/>
<path d="M-51.9764 287.381C144.371 278.602 273.233 327.604 346.94 364.596C420.353 401.426 464.273 410.934 571.057 450.907C745.526 516.241 910.931 565.441 1041.73 519.371C1140.52 484.583 1179.43 437.627 1261.11 334.983C1321.17 259.522 1414.15 147.983 1597.96 17.8015" stroke="#605D67" stroke-miterlimit="10"/>
<path d="M-51.4737 310.122C138.004 291.432 266.956 334.741 339.191 367.035C414.384 400.651 462.778 408.229 574.678 447.049C751.312 508.322 903.566 555.082 1032.07 513.41C1135.23 479.955 1180.93 433.737 1269.37 331.333C1332.62 258.097 1428.3 148.818 1608.41 19.8914" stroke="#605D67" stroke-miterlimit="10"/>
<path d="M-50.9691 332.884C131.656 304.28 260.926 341.776 331.448 369.494C408.658 399.844 461.229 405.641 578.305 443.206C757.024 500.552 896.376 544.935 1022.41 507.471C1130.06 475.466 1182.27 429.812 1277.62 327.702C1343.96 256.653 1442.44 149.672 1618.87 22.0065" stroke="#605D67" stroke-miterlimit="10"/>
<path d="M-50.4665 355.634C125.262 317.116 255.125 348.651 323.698 371.943C403.147 398.933 459.647 403.132 581.925 439.357C762.665 492.895 889.316 534.958 1012.74 501.519C1125 471.11 1183.48 425.815 1285.87 324.064C1355.21 255.156 1456.59 150.514 1629.34 24.1028" stroke="#605D67" stroke-miterlimit="10"/>
<path d="M-49.9637 378.387C118.89 329.955 249.524 355.35 315.949 374.396C397.845 397.877 457.989 400.708 585.55 435.508C768.261 485.355 882.346 525.158 1003.09 495.568C1120 466.914 1184.56 421.746 1294.12 320.423C1366.37 253.611 1470.73 151.359 1639.81 26.2022" stroke="#605D67" stroke-miterlimit="10"/>
<path d="M-49.461 401.136C112.523 342.795 244.09 361.853 308.199 376.845C392.728 396.613 456.321 398.375 589.161 431.656C773.817 477.919 875.43 515.506 993.416 489.62C1115.1 462.905 1185.5 417.588 1302.37 316.782C1377.46 252.013 1484.87 152.194 1650.27 28.311" stroke="#605D67" stroke-miterlimit="10"/>
<path d="M-48.9583 423.886C106.151 355.63 238.765 368.145 300.432 379.294C387.729 395.074 454.617 396.13 592.777 427.807C779.368 470.586 868.542 506.04 983.745 483.668C1110.25 459.103 1186.34 413.339 1310.61 313.132C1388.47 250.352 1499 153.036 1660.72 30.3915" stroke="#605D67" stroke-miterlimit="10"/>
<path d="M-48.4556 446.639C99.8018 368.47 233.485 374.222 292.7 381.744C382.835 393.193 452.935 393.978 596.416 423.955C784.933 463.358 861.681 496.706 974.102 477.72C1105.45 455.531 1187.09 409.001 1318.88 309.504C1399.48 248.653 1513.16 153.89 1671.2 32.5035" stroke="#605D67" stroke-miterlimit="10"/>
<path d="M-47.9297 469.389C93.4305 381.309 228.818 391.49 284.974 384.196C376.826 372.262 451.258 391.916 600.064 420.107C790.529 456.197 854.774 487.511 964.44 471.769C1100.66 452.225 1187.74 404.534 1327.13 305.863C1410.43 246.897 1527.31 154.735 1681.67 34.6155" stroke="#605D67" stroke-miterlimit="10"/>
<path d="M-47.4483 492.138C87.0419 394.148 224.043 395.179 277.203 386.645C370.379 371.691 449.537 389.94 603.663 416.258C796.145 449.136 847.788 478.451 954.78 465.817C1095.85 449.18 1188.31 399.973 1335.38 302.216C1421.36 245.075 1541.45 155.57 1692.13 36.696" stroke="#605D67" stroke-miterlimit="10"/>
<path d="M-46.9456 514.891C80.6701 406.984 218.641 398.504 269.454 389.095C364.306 371.534 447.847 388.051 607.288 412.421C801.791 442.134 840.714 469.496 945.118 459.885C1091.01 446.453 1188.82 395.314 1343.64 298.597C1432.27 243.228 1555.6 156.431 1702.6 38.8174" stroke="#605D67" stroke-miterlimit="10"/>
<path d="M-46.4428 537.641C74.2984 419.823 210.977 396.736 261.709 391.544C361.637 381.34 446.183 386.242 610.913 408.566C807.496 435.193 833.517 460.632 935.461 453.927C1086.08 444.01 1189.27 390.504 1351.9 294.94C1443.19 241.289 1569.75 157.266 1713.07 40.9011" stroke="#605D67" stroke-miterlimit="10"/>
<path d="M-45.9401 560.391C67.9266 432.662 204.66 402.088 253.955 393.996C355.306 377.362 444.529 384.515 614.529 404.714C813.238 428.315 826.157 451.865 925.795 447.975C1081.05 441.917 1189.69 385.624 1360.14 291.309C1454.1 239.319 1583.89 158.117 1723.53 43.0099" stroke="#605D67" stroke-miterlimit="10"/>
<path d="M-45.4374 583.144C61.5593 445.501 197.912 407.447 246.206 396.446C348.394 373.157 442.906 382.863 618.154 400.859C819.047 421.487 818.625 443.168 916.137 442.021C1075.88 440.13 1190.07 380.612 1368.4 287.665C1465.02 237.305 1598.03 158.953 1734 45.103" stroke="#605D67" stroke-miterlimit="10"/>
</svg>
