<svg width="11" height="11" viewBox="0 0 11 11" fill="none" xmlns="http://www.w3.org/2000/svg">
<path d="M5.46 10.144C4.82 10.144 4.22 10.028 3.66 9.796C3.1 9.556 2.608 9.224 2.184 8.8C1.76 8.376 1.428 7.884 1.188 7.324C0.956 6.764 0.84 6.164 0.84 5.524C0.84 4.884 0.956 4.288 1.188 3.736C1.428 3.184 1.76 2.696 2.184 2.272C2.608 1.848 3.096 1.516 3.648 1.276C4.208 1.036 4.812 0.916 5.46 0.916C6.1 0.916 6.696 1.036 7.248 1.276C7.808 1.516 8.3 1.848 8.724 2.272C9.148 2.688 9.476 3.176 9.708 3.736C9.948 4.288 10.068 4.884 10.068 5.524C10.068 6.164 9.948 6.764 9.708 7.324C9.476 7.884 9.148 8.376 8.724 8.8C8.3 9.224 7.808 9.556 7.248 9.796C6.696 10.028 6.1 10.144 5.46 10.144ZM5.46 9.208C5.98 9.208 6.46 9.116 6.9 8.932C7.348 8.74 7.74 8.476 8.076 8.14C8.412 7.804 8.672 7.412 8.856 6.964C9.048 6.516 9.144 6.036 9.144 5.524C9.144 5.012 9.048 4.536 8.856 4.096C8.672 3.648 8.412 3.256 8.076 2.92C7.74 2.584 7.348 2.32 6.9 2.128C6.46 1.936 5.98 1.84 5.46 1.84C4.948 1.84 4.468 1.936 4.02 2.128C3.572 2.312 3.18 2.572 2.844 2.908C2.508 3.244 2.244 3.636 2.052 4.084C1.868 4.524 1.776 5.004 1.776 5.524C1.776 6.036 1.868 6.516 2.052 6.964C2.244 7.412 2.508 7.804 2.844 8.14C3.18 8.476 3.572 8.74 4.02 8.932C4.468 9.116 4.948 9.208 5.46 9.208ZM5.532 8.044C5.068 8.044 4.648 7.936 4.272 7.72C3.904 7.496 3.612 7.196 3.396 6.82C3.188 6.436 3.084 6.004 3.084 5.524C3.084 5.036 3.188 4.604 3.396 4.228C3.612 3.852 3.904 3.556 4.272 3.34C4.64 3.124 5.06 3.016 5.532 3.016C5.876 3.016 6.188 3.076 6.468 3.196C6.756 3.308 6.996 3.464 7.188 3.664C7.38 3.856 7.516 4.068 7.596 4.3L6.744 4.684C6.656 4.46 6.508 4.272 6.3 4.12C6.092 3.96 5.836 3.88 5.532 3.88C5.092 3.88 4.732 4.032 4.452 4.336C4.18 4.64 4.044 5.036 4.044 5.524C4.044 6.012 4.18 6.408 4.452 6.712C4.732 7.016 5.092 7.168 5.532 7.168C5.82 7.168 6.068 7.096 6.276 6.952C6.492 6.8 6.648 6.608 6.744 6.376L7.596 6.76C7.516 6.992 7.38 7.208 7.188 7.408C6.996 7.6 6.756 7.756 6.468 7.876C6.188 7.988 5.876 8.044 5.532 8.044Z" fill="#9FA1A3"/>
</svg>
