<svg width="1440" height="693" viewBox="0 0 1440 693" fill="none" xmlns="http://www.w3.org/2000/svg">
<path d="M-402 177.2C-98.6814 226.658 64.8181 291.888 159.114 345.251C237.719 389.739 236.324 407.938 319.791 441.13C500.923 513.156 847.9 562.824 1016.06 500.928C1098.9 470.438 1068.26 431.798 1107.88 358.652C1143.53 292.852 1235.69 202.353 1493 104" stroke="url(#paint0_linear_1_40)" stroke-miterlimit="10"/>
<path d="M-401 193.007C-106.129 235.53 55.6501 296.921 149.846 346.881C229.104 388.931 235.549 405.746 324.159 438.381C510.043 506.842 835.726 554.505 1004.04 496.728C1090.73 466.971 1071.01 428.977 1117.41 356.015C1158.27 291.781 1252.26 202.793 1505 105.283" stroke="url(#paint1_linear_1_40)" stroke-miterlimit="10"/>
<path d="M-401 209.119C-114.277 244.661 46.0727 302.157 140.163 348.642C220.319 388.244 234.286 403.618 328.289 435.655C518.706 500.551 824.346 546.183 992.483 492.485C1083.31 463.473 1074.15 426.227 1127.53 353.502C1173.47 290.924 1269.55 203.542 1518 106.993" stroke="url(#paint2_linear_1_40)" stroke-miterlimit="10"/>
<path d="M-400 225.01C-121.577 253.635 37.4199 307.355 131.197 350.449C212.315 387.705 233.539 401.64 333.069 433.122C527.547 494.665 813.823 538.387 981.22 488.541C1076.33 460.223 1077.4 423.686 1137.88 351.027C1188.67 290.004 1287.01 204.05 1531 108.276" stroke="url(#paint3_linear_1_40)" stroke-miterlimit="10"/>
<path d="M-400 240.756C-129.845 262.419 27.9606 312.3 121.241 351.922C203.463 386.843 231.709 399.306 336.807 430.175C535.01 488.373 802.715 530.172 968.931 484.111C1068.52 456.516 1079.47 420.758 1147.21 348.237C1202.69 288.85 1303.46 204.426 1543 109.558" stroke="url(#paint4_linear_1_40)" stroke-miterlimit="10"/>
<path d="M-399 257.333C-137.166 272.034 19.6966 318.062 112.275 354.211C195.776 386.815 230.672 397.795 341.565 428.009C543.189 482.95 793.019 522.849 957.647 480.452C1061.89 453.605 1082.33 418.63 1157.54 346.255C1217.52 288.52 1320.9 205.653 1556 111.696" stroke="url(#paint5_linear_1_40)" stroke-miterlimit="10"/>
<path d="M-398 272.992C-144.465 280.725 11.6746 322.882 103.312 355.576C188.277 385.889 229.544 395.391 346.32 424.911C551.119 476.68 783.687 514.716 946.367 475.844C1055.43 449.784 1085.08 415.569 1167.88 343.359C1232.18 287.275 1338.36 205.992 1569 112.979" stroke="url(#paint6_linear_1_40)" stroke-miterlimit="10"/>
<path d="M-398 289.215C-152.761 290.009 2.91859 328.289 93.3526 357.581C180.002 385.649 227.333 393.707 350.081 422.515C557.833 471.258 773.694 507.505 934.099 471.985C1048.15 446.731 1086.63 413.198 1177.23 341.092C1245.67 286.601 1354.78 206.849 1581 114.689" stroke="url(#paint7_linear_1_40)" stroke-miterlimit="10"/>
<path d="M-397 304.746C-160.066 298.598 -4.56694 332.912 84.3763 358.815C172.964 384.606 225.964 391.264 354.821 419.255C565.354 465.005 764.949 499.458 922.783 467.197C1041.99 442.837 1088.95 409.956 1187.52 338.079C1259.99 285.237 1372.19 207.132 1594 115.972" stroke="url(#paint8_linear_1_40)" stroke-miterlimit="10"/>
<path d="M-397 320.667C-168.355 307.569 -12.7462 337.922 74.4202 360.556C165.157 384.117 223.555 389.428 358.586 416.635C571.733 459.58 755.461 492.353 910.523 463.146C1035.01 439.698 1090.15 407.305 1196.88 335.534C1273.2 284.205 1388.66 207.615 1606 117.255" stroke="url(#paint9_linear_1_40)" stroke-miterlimit="10"/>
<path d="M-396 336.566C-175.626 316.505 -19.6362 342.802 65.462 362.242C158.632 383.527 222.07 387.593 363.344 413.938C579.004 454.157 747.161 485.284 899.241 459.009C1029.15 436.563 1092.15 404.545 1207.21 332.931C1287.26 283.103 1406.1 208.073 1619 118.537" stroke="url(#paint10_linear_1_40)" stroke-miterlimit="10"/>
<path d="M-395 352.569C-182.951 325.578 -26.2463 347.676 56.4998 363.998C152.37 382.911 220.548 385.853 368.099 411.239C586.196 448.755 739.024 478.231 887.963 454.799C1023.42 433.489 1093.99 401.749 1217.54 330.446C1301.21 282.159 1423.54 208.831 1632 120.247" stroke="url(#paint11_linear_1_40)" stroke-miterlimit="10"/>
<path d="M-395 368.679C-191.249 334.692 -33.6164 352.512 46.5367 365.878C145.358 382.356 217.933 384.342 371.857 408.764C592.33 443.744 729.993 471.677 875.688 450.912C1016.77 430.803 1094.67 399.106 1226.87 328.002C1314.05 281.116 1439.98 209.36 1644 121.53" stroke="url(#paint12_linear_1_40)" stroke-miterlimit="10"/>
<path d="M-394 384.439C-198.54 343.498 -39.7831 356.872 37.5751 367.393C139.573 381.264 216.308 382.501 376.601 405.856C599.418 438.32 722.031 464.696 864.4 446.531C1011.24 427.784 1096.18 395.983 1237.2 325.244C1327.81 279.793 1457.42 209.746 1657 122.813" stroke="url(#paint13_linear_1_40)" stroke-miterlimit="10"/>
<path d="M-394 400.915C-206.745 352.972 -46.6473 361.763 27.7995 369.594C133.189 380.678 213.938 381.42 380.732 403.67C605.993 433.718 713.648 458.621 852.727 442.907C1005.44 425.652 1097.3 393.507 1247.33 323.121C1341.33 279.024 1474.77 210.669 1670 124.523" stroke="url(#paint14_linear_1_40)" stroke-miterlimit="10"/>
<path d="M-393 416.571C-214.107 361.769 -52.7997 365.802 18.6513 371.075C127.411 379.101 211.996 379.652 385.126 400.668C612.597 428.292 705.204 451.671 840.855 438.361C999.346 422.805 1097.85 390.184 1256.88 320.43C1354.13 277.769 1491.31 211.334 1682 126.233" stroke="url(#paint15_linear_1_40)" stroke-miterlimit="10"/>
<path d="M-392 432.483C-221.429 370.787 -58.0656 377.918 9.69465 372.809C120.527 364.45 210.34 378.217 389.894 397.963C619.717 423.242 697.238 445.176 829.565 434.15C993.929 420.46 1099 387.055 1267.2 317.94C1367.71 276.637 1508.74 212.082 1695 127.944" stroke="url(#paint16_linear_1_40)" stroke-miterlimit="10"/>
<path d="M-392 448.19C-229.722 379.564 -64.4157 380.285 -0.271327 374.309C112.155 363.836 207.669 376.616 393.639 395.048C625.89 418.074 688.202 438.605 817.3 429.756C987.517 418.104 1099.08 383.643 1276.54 315.18C1380.28 275.162 1525.19 212.479 1707 129.226" stroke="url(#paint17_linear_1_40)" stroke-miterlimit="10"/>
<path d="M-391 464.438C-237.019 388.749 -70.5441 382.801 -9.23275 376.201C105.215 363.883 206.016 375.469 398.398 392.563C633.084 413.404 680.048 432.596 806.022 425.855C982.05 416.433 1100.07 380.564 1286.87 312.724C1393.82 273.887 1542.63 213.006 1720 130.509" stroke="url(#paint18_linear_1_40)" stroke-miterlimit="10"/>
<path d="M-390 480.685C-244.315 398.035 -79.4007 381.839 -18.1885 378.197C102.382 371.039 204.395 374.478 403.156 390.138C640.35 408.817 671.746 426.663 794.75 421.959C976.489 415.002 1100.99 377.468 1297.22 310.429C1407.37 272.793 1560.07 213.85 1733 132.219" stroke="url(#paint19_linear_1_40)" stroke-miterlimit="10"/>
<path d="M-390 496.077C-252.611 406.566 -87.6324 385.141 -28.154 379.47C94.1327 367.813 201.788 372.825 406.906 386.981C646.662 403.52 662.25 420.024 782.47 417.298C969.802 413.052 1100.87 373.603 1306.54 307.508C1419.91 271.074 1576.51 214.168 1745 133.502" stroke="url(#paint20_linear_1_40)" stroke-miterlimit="10"/>
<path d="M-389 512.325C-259.902 415.742 -95.384 389.04 -37.1146 381.32C86.1822 364.978 200.217 371.789 411.664 384.417C654.053 398.891 653.544 414.105 771.199 413.3C963.935 411.973 1101.72 370.21 1316.88 304.989C1433.46 269.652 1593.94 214.672 1758 134.785" stroke="url(#paint21_linear_1_40)" stroke-miterlimit="10"/>
<defs>
<linearGradient id="paint0_linear_1_40" x1="545.5" y1="104" x2="545.5" y2="529" gradientUnits="userSpaceOnUse">
<stop stop-color="#605D67" stop-opacity="0.57"/>
<stop offset="1" stop-color="#605D67" stop-opacity="0"/>
</linearGradient>
<linearGradient id="paint1_linear_1_40" x1="552" y1="105.283" x2="552" y2="522.586" gradientUnits="userSpaceOnUse">
<stop stop-color="#605D67" stop-opacity="0.57"/>
<stop offset="1" stop-color="#605D67" stop-opacity="0"/>
</linearGradient>
<linearGradient id="paint2_linear_1_40" x1="558.5" y1="106.993" x2="558.5" y2="516.173" gradientUnits="userSpaceOnUse">
<stop stop-color="#605D67" stop-opacity="0.57"/>
<stop offset="1" stop-color="#605D67" stop-opacity="0"/>
</linearGradient>
<linearGradient id="paint3_linear_1_40" x1="565.5" y1="108.276" x2="565.5" y2="510.187" gradientUnits="userSpaceOnUse">
<stop stop-color="#605D67" stop-opacity="0.57"/>
<stop offset="1" stop-color="#605D67" stop-opacity="0"/>
</linearGradient>
<linearGradient id="paint4_linear_1_40" x1="571.5" y1="109.558" x2="571.5" y2="503.774" gradientUnits="userSpaceOnUse">
<stop stop-color="#605D67" stop-opacity="0.57"/>
<stop offset="1" stop-color="#605D67" stop-opacity="0"/>
</linearGradient>
<linearGradient id="paint5_linear_1_40" x1="578.5" y1="111.696" x2="578.5" y2="498.215" gradientUnits="userSpaceOnUse">
<stop stop-color="#605D67" stop-opacity="0.57"/>
<stop offset="1" stop-color="#605D67" stop-opacity="0"/>
</linearGradient>
<linearGradient id="paint6_linear_1_40" x1="585.5" y1="112.979" x2="585.5" y2="491.802" gradientUnits="userSpaceOnUse">
<stop stop-color="#605D67" stop-opacity="0.57"/>
<stop offset="1" stop-color="#605D67" stop-opacity="0"/>
</linearGradient>
<linearGradient id="paint7_linear_1_40" x1="591.5" y1="114.689" x2="591.5" y2="486.243" gradientUnits="userSpaceOnUse">
<stop stop-color="#605D67" stop-opacity="0.57"/>
<stop offset="1" stop-color="#605D67" stop-opacity="0"/>
</linearGradient>
<linearGradient id="paint8_linear_1_40" x1="598.5" y1="115.972" x2="598.5" y2="479.83" gradientUnits="userSpaceOnUse">
<stop stop-color="#605D67" stop-opacity="0.57"/>
<stop offset="1" stop-color="#605D67" stop-opacity="0"/>
</linearGradient>
<linearGradient id="paint9_linear_1_40" x1="604.5" y1="117.255" x2="604.5" y2="474.272" gradientUnits="userSpaceOnUse">
<stop stop-color="#605D67" stop-opacity="0.57"/>
<stop offset="1" stop-color="#605D67" stop-opacity="0"/>
</linearGradient>
<linearGradient id="paint10_linear_1_40" x1="611.5" y1="118.537" x2="611.5" y2="468.713" gradientUnits="userSpaceOnUse">
<stop stop-color="#605D67" stop-opacity="0.57"/>
<stop offset="1" stop-color="#605D67" stop-opacity="0"/>
</linearGradient>
<linearGradient id="paint11_linear_1_40" x1="618.5" y1="120.247" x2="618.5" y2="463.155" gradientUnits="userSpaceOnUse">
<stop stop-color="#605D67" stop-opacity="0.57"/>
<stop offset="1" stop-color="#605D67" stop-opacity="0"/>
</linearGradient>
<linearGradient id="paint12_linear_1_40" x1="624.5" y1="121.53" x2="624.5" y2="458.024" gradientUnits="userSpaceOnUse">
<stop stop-color="#605D67" stop-opacity="0.57"/>
<stop offset="1" stop-color="#605D67" stop-opacity="0"/>
</linearGradient>
<linearGradient id="paint13_linear_1_40" x1="631.5" y1="122.813" x2="631.5" y2="452.466" gradientUnits="userSpaceOnUse">
<stop stop-color="#605D67" stop-opacity="0.57"/>
<stop offset="1" stop-color="#605D67" stop-opacity="0"/>
</linearGradient>
<linearGradient id="paint14_linear_1_40" x1="638" y1="124.523" x2="638" y2="447.763" gradientUnits="userSpaceOnUse">
<stop stop-color="#605D67" stop-opacity="0.57"/>
<stop offset="1" stop-color="#605D67" stop-opacity="0"/>
</linearGradient>
<linearGradient id="paint15_linear_1_40" x1="644.5" y1="126.233" x2="644.5" y2="442.204" gradientUnits="userSpaceOnUse">
<stop stop-color="#605D67" stop-opacity="0.57"/>
<stop offset="1" stop-color="#605D67" stop-opacity="0"/>
</linearGradient>
<linearGradient id="paint16_linear_1_40" x1="651.5" y1="127.944" x2="651.5" y2="437.073" gradientUnits="userSpaceOnUse">
<stop stop-color="#605D67" stop-opacity="0.57"/>
<stop offset="1" stop-color="#605D67" stop-opacity="0"/>
</linearGradient>
<linearGradient id="paint17_linear_1_40" x1="657.5" y1="129.226" x2="657.5" y2="448.19" gradientUnits="userSpaceOnUse">
<stop stop-color="#605D67" stop-opacity="0.57"/>
<stop offset="1" stop-color="#605D67" stop-opacity="0"/>
</linearGradient>
<linearGradient id="paint18_linear_1_40" x1="664.5" y1="130.509" x2="664.5" y2="464.438" gradientUnits="userSpaceOnUse">
<stop stop-color="#605D67" stop-opacity="0.57"/>
<stop offset="1" stop-color="#605D67" stop-opacity="0"/>
</linearGradient>
<linearGradient id="paint19_linear_1_40" x1="671.5" y1="132.219" x2="671.5" y2="480.685" gradientUnits="userSpaceOnUse">
<stop stop-color="#605D67" stop-opacity="0.57"/>
<stop offset="1" stop-color="#605D67" stop-opacity="0"/>
</linearGradient>
<linearGradient id="paint20_linear_1_40" x1="677.5" y1="133.502" x2="677.5" y2="496.077" gradientUnits="userSpaceOnUse">
<stop stop-color="#605D67" stop-opacity="0.57"/>
<stop offset="1" stop-color="#605D67" stop-opacity="0"/>
</linearGradient>
<linearGradient id="paint21_linear_1_40" x1="684.5" y1="134.785" x2="684.5" y2="512.325" gradientUnits="userSpaceOnUse">
<stop stop-color="#605D67" stop-opacity="0.57"/>
<stop offset="1" stop-color="#605D67" stop-opacity="0"/>
</linearGradient>
</defs>
</svg>
